<svg width="17" height="19" viewBox="0 0 17 19" fill="none" xmlns="http://www.w3.org/2000/svg">
  <g clip-path="url(#clip0_31_393)">
    <path
      d="M17 4.21114V5.84653H0V4.21114C0 3.17693 0.856345 2.3392 1.91354 2.3392H3.60724V1.11241C3.60724 0.497556 4.11685 0 4.74437 0H4.95221C5.58073 0 6.09034 0.497556 6.09034 1.11241V2.3392H10.8917V1.11241C10.8917 0.497556 11.4003 0 12.0288 0H12.2366C12.8642 0 13.3738 0.497556 13.3738 1.11241V2.3392H15.0865C16.1437 2.3392 17 3.17693 17 4.21114Z"
      fill="currentColor" />
    <path
      d="M0 7.13586V17.2356C0 18.2102 0.807383 19 1.80262 19H15.1964C16.1926 19 17 18.2102 17 17.2356V7.13586H0ZM4.84829 16.0899C4.84829 16.4047 4.58749 16.6608 4.26474 16.6608H2.95074C2.62799 16.6608 2.36619 16.4047 2.36619 16.0899V14.8035C2.36619 14.4878 2.62799 14.2326 2.95074 14.2326H4.26474C4.58749 14.2326 4.84829 14.4878 4.84829 14.8035V16.0899ZM4.84829 11.3626C4.84829 11.6784 4.58749 11.9335 4.26474 11.9335H2.95074C2.62799 11.9335 2.36619 11.6784 2.36619 11.3626V10.0762C2.36619 9.76148 2.62799 9.50537 2.95074 9.50537H4.26474C4.58749 9.50537 4.84829 9.76148 4.84829 10.0762V11.3626ZM9.74155 16.0899C9.74155 16.4047 9.47975 16.6608 9.157 16.6608H7.843C7.52025 16.6608 7.25845 16.4047 7.25845 16.0899V14.8035C7.25845 14.4878 7.52025 14.2326 7.843 14.2326H9.157C9.47975 14.2326 9.74155 14.4878 9.74155 14.8035V16.0899ZM9.74155 11.3626C9.74155 11.6784 9.47975 11.9335 9.157 11.9335H7.843C7.52025 11.9335 7.25845 11.6784 7.25845 11.3626V10.0762C7.25845 9.76148 7.52025 9.50537 7.843 9.50537H9.157C9.47975 9.50537 9.74155 9.76148 9.74155 10.0762V11.3626ZM14.6338 16.0899C14.6338 16.4047 14.372 16.6608 14.0493 16.6608H12.7353C12.4125 16.6608 12.1507 16.4047 12.1507 16.0899V14.8035C12.1507 14.4878 12.4125 14.2326 12.7353 14.2326H14.0493C14.372 14.2326 14.6338 14.4878 14.6338 14.8035V16.0899ZM14.6338 11.3626C14.6338 11.6784 14.372 11.9335 14.0493 11.9335H12.7353C12.4125 11.9335 12.1507 11.6784 12.1507 11.3626V10.0762C12.1507 9.76148 12.4125 9.50537 12.7353 9.50537H14.0493C14.372 9.50537 14.6338 9.76148 14.6338 10.0762V11.3626Z"
      fill="currentColor" />
  </g>
  <defs>
    <clipPath id="clip0_31_393">
      <rect width="17" height="19" fill="white" />
    </clipPath>
  </defs>
</svg>