<svg width="33" height="27" viewBox="0 0 33 27" fill="none" xmlns="http://www.w3.org/2000/svg">
  <g clip-path="url(#clip0_119_376)">
    <path
      d="M12.7838 22.9035C12.7672 21.6593 12.0541 20.5539 10.9596 19.8531C10.1902 19.3605 9.23337 19.0676 8.19528 19.0676C5.66472 19.0676 3.60678 20.8112 3.60678 22.9526C3.60678 25.094 5.66472 26.8392 8.19528 26.8392C10.7258 26.8392 12.7854 25.0957 12.7854 22.9526C12.7854 22.9357 12.7854 22.9204 12.7854 22.9035H12.7838ZM8.19528 24.9772C6.69618 24.9772 5.43091 24.0512 5.43091 22.9526C5.43091 21.854 6.69618 20.9297 8.19528 20.9297C9.69437 20.9297 10.9215 21.8269 10.9596 22.9018C10.9596 22.9187 10.9596 22.9357 10.9596 22.9526C10.9596 24.0512 9.69271 24.9772 8.19362 24.9772H8.19528Z"
      fill="currentColor" />
    <path
      d="M27.6139 16.4354C26.8444 15.9428 25.8859 15.6499 24.8495 15.6499C23.6854 15.6499 22.6208 16.0189 21.8115 16.6266C21.2974 17.0109 20.8862 17.4917 20.6159 18.035L22.115 19.2403C22.236 18.6681 22.697 18.1654 23.3388 17.8539C23.7766 17.6372 24.2973 17.512 24.8495 17.512C26.3486 17.512 27.6139 18.4396 27.6139 19.5365C27.6139 20.0071 27.3817 20.4456 26.997 20.7943C26.5161 21.231 25.7947 21.5239 24.9971 21.556L26.8395 23.0355C27.4646 22.7816 28.0119 22.4092 28.4397 21.9522C29.0649 21.2886 29.438 20.449 29.438 19.5365C29.438 18.272 28.7216 17.1463 27.6139 16.4354Z"
      fill="currentColor" />
    <path d="M10.9596 14.1466L12.7838 15.6126V22.9525H10.9596V14.1466Z" fill="currentColor" />
    <path
      d="M29.438 0.93098V19.5364H27.6139V2.21073L12.7838 7.11305V11.7394L10.9596 10.2752V6.43593C10.9596 6.03305 11.215 5.67587 11.5898 5.5506L28.2457 0.045651C28.5243 -0.0474524 28.8277 0.00333127 29.0632 0.177689C29.2987 0.353739 29.438 0.633049 29.438 0.93098Z"
      fill="currentColor" />
    <path
      d="M28.8045 8.5757L27.6139 8.96335L16.7056 12.5233L14.6095 13.2072L12.88 11.8174L14.976 11.1335L27.6139 7.00987L28.249 6.80334L28.8045 8.5757Z"
      fill="currentColor" />
    <path
      d="M32.8043 26.6445C32.6252 26.8781 32.3566 26.9999 32.0879 26.9999C31.8906 26.9999 31.6916 26.9356 31.5241 26.8002L26.8394 23.0354L24.9971 21.5559L22.115 19.2402L20.6159 18.0349L14.6095 13.2071L12.8799 11.8173L12.7838 11.7394L10.9596 10.2752L0.348241 1.7469C-0.0480906 1.42866 -0.11608 0.842955 0.195678 0.440071C0.507437 0.035494 1.07955 -0.0339104 1.47588 0.284334L10.9596 7.90527L12.7838 9.37123L14.976 11.1334L16.7056 12.5232L21.8115 16.6265L23.3388 17.8538L26.997 20.7942L28.4397 21.952L32.6518 25.3376C33.0481 25.6559 33.1161 26.2416 32.8043 26.6445Z"
      fill="currentColor" />
  </g>
  <defs>
    <clipPath id="clip0_119_376">
      <rect width="33" height="27" fill="white" />
    </clipPath>
  </defs>
</svg>