<svg width="32" height="28" viewBox="0 0 32 28" fill="none" xmlns="http://www.w3.org/2000/svg">
  <g clip-path="url(#clip0_29_368)">
    <path
      d="M29.836 1.44594L30.4896 2.06775C31.1713 2.71555 31.2523 3.76427 30.6798 4.50673L20.408 17.8246L13.6072 11.3429L27.4197 1.29374C28.1542 0.753598 29.1769 0.816707 29.836 1.44408V1.44594Z"
      stroke="currentColor" stroke-width="2" stroke-linejoin="round" />
    <path
      d="M13.6072 11.3411L12.6166 12.4306C11.7013 13.4385 11.7031 14.9661 12.6222 15.9722L15.2062 18.8009C16.2834 19.9814 18.1423 20.0334 19.2874 18.916L20.408 17.8227L13.6072 11.3411Z"
      fill="currentColor" stroke="currentColor" stroke-width="2" stroke-linejoin="round" />
    <path
      d="M2.00012 26.8863L10.0966 26.8065C13.417 26.7731 16.0518 24.0371 15.9105 20.7666L15.8804 20.0687L11.4847 15.9128H10.5524C7.45053 15.9128 4.93626 18.3907 4.93626 21.4478V23.0793C4.93626 24.2432 3.97763 25.1879 2.79677 25.1879H1.99258C1.5161 25.1879 1.13189 25.5684 1.13189 26.0362C1.13189 26.5077 1.52363 26.89 2.002 26.8845L2.00012 26.8863Z"
      stroke="currentColor" stroke-width="2" stroke-linejoin="round" />
  </g>
  <defs>
    <clipPath id="clip0_29_368">
      <rect width="32" height="28" fill="white" />
    </clipPath>
  </defs>
</svg>