<svg width="26" height="26" viewBox="0 0 26 26" fill="none" xmlns="http://www.w3.org/2000/svg">
  <path
    d="M18.223 7.63723C17.1894 7.63586 16.1741 7.90966 15.2813 8.4305C14.3885 8.95134 13.6504 9.70044 13.1429 10.6009V6.85568H11.5798V13.1081H17.8322V11.545H14.4067C14.7547 10.866 15.2774 10.292 15.921 9.88202C16.5646 9.47209 17.3057 9.24105 18.0682 9.21269C18.8307 9.18432 19.587 9.35965 20.2592 9.72064C20.9315 10.0816 21.4954 10.6152 21.8929 11.2665C22.2904 11.9178 22.5072 12.6632 22.521 13.4261C22.5347 14.1891 22.345 14.9418 21.9712 15.607C21.5974 16.2722 21.0531 16.8258 20.3943 17.2108C19.7355 17.5958 18.986 17.7983 18.223 17.7974H17.8322V19.3605H18.223C19.7776 19.3605 21.2686 18.7429 22.3678 17.6437C23.4671 16.5444 24.0847 15.0535 24.0847 13.4989C24.0847 11.9443 23.4671 10.4533 22.3678 9.35407C21.2686 8.2548 19.7776 7.63723 18.223 7.63723Z"
    fill="currentColor" />
  <path
    d="M20.9584 5.2926H3.76427V7.77089L9.5587 13.5653L10.0167 14.0233V20.9236H13.1429V19.3605H14.706V20.9236C14.706 21.3382 14.5413 21.7358 14.2482 22.0289C13.955 22.322 13.5575 22.4867 13.1429 22.4867H10.0167C9.60213 22.4867 9.20455 22.322 8.91141 22.0289C8.61827 21.7358 8.45358 21.3382 8.45358 20.9236V14.6712L2.65916 8.87601C2.366 8.58294 2.20126 8.18542 2.20117 7.77089V5.2926C2.20117 4.87803 2.36586 4.48045 2.65899 4.18731C2.95213 3.89418 3.34971 3.72949 3.76427 3.72949H20.9584V5.2926Z"
    fill="currentColor" />
</svg>