<svg width="22" height="22" viewBox="0 0 22 22" fill="none" xmlns="http://www.w3.org/2000/svg">
<path d="M2.55212 3.92307C2.07565 3.92307 1.69232 4.29305 1.69232 4.75295V6.41271C1.69232 6.8726 2.07565 7.24259 2.55212 7.24259H4.27173C4.7482 7.24259 5.13153 6.8726 5.13153 6.41271V4.75295C5.13153 4.29305 4.7482 3.92307 4.27173 3.92307H2.55212ZM7.99753 4.47632C7.36343 4.47632 6.85113 4.97079 6.85113 5.58283C6.85113 6.19487 7.36343 6.68934 7.99753 6.68934H18.3151C18.9493 6.68934 19.4616 6.19487 19.4616 5.58283C19.4616 4.97079 18.9493 4.47632 18.3151 4.47632H7.99753ZM7.99753 10.0089C7.36343 10.0089 6.85113 10.5033 6.85113 11.1154C6.85113 11.7274 7.36343 12.2219 7.99753 12.2219H18.3151C18.9493 12.2219 19.4616 11.7274 19.4616 11.1154C19.4616 10.5033 18.9493 10.0089 18.3151 10.0089H7.99753ZM7.99753 15.5414C7.36343 15.5414 6.85113 16.0359 6.85113 16.6479C6.85113 17.26 7.36343 17.7544 7.99753 17.7544H18.3151C18.9493 17.7544 19.4616 17.26 19.4616 16.6479C19.4616 16.0359 18.9493 15.5414 18.3151 15.5414H7.99753ZM1.69232 10.2855V11.9453C1.69232 12.4051 2.07565 12.7751 2.55212 12.7751H4.27173C4.7482 12.7751 5.13153 12.4051 5.13153 11.9453V10.2855C5.13153 9.8256 4.7482 9.45561 4.27173 9.45561H2.55212C2.07565 9.45561 1.69232 9.8256 1.69232 10.2855ZM2.55212 14.9882C2.07565 14.9882 1.69232 15.3581 1.69232 15.818V17.4778C1.69232 17.9377 2.07565 18.3077 2.55212 18.3077H4.27173C4.7482 18.3077 5.13153 17.9377 5.13153 17.4778V15.818C5.13153 15.3581 4.7482 14.9882 4.27173 14.9882H2.55212Z" fill="currentColor"/>
</svg>
